<?xml version="1.0" encoding="UTF-8"?>
<svg id="Layer_2" data-name="Layer 2" xmlns="http://www.w3.org/2000/svg" viewBox="0 0 32.06 32.06">
  <defs>
    <style>
      .cls-1 {
        fill: #fff;
      }

      .cls-2 {
        fill: #6366f1;
      }
    </style>
  </defs>
  <g id="Layer_1-2" data-name="Layer 1">
    <g>
      <rect class="cls-2" width="32.06" height="32.06" rx="4.05" ry="4.05"/>
      <path class="cls-1" d="m25.36,7.74l-8.31,8.29,8.31,8.29-1.03,1.03-8.29-8.31-8.29,8.28-1.03-1.03,8.31-8.27L6.7,7.76l1.03-1.03,8.29,8.28,8.29-8.31,1.03,1.03Zm-14.02,8.29c0,.4-.15.75-.45,1.06-.3.3-.65.45-1.06.45s-.75-.15-1.06-.45-.45-.65-.45-1.06.15-.76.45-1.06.65-.45,1.06-.45.76.15,1.06.45c.3.3.45.65.45,1.06Zm4.69-7.73c.4,0,.75.15,1.06.45.3.3.45.65.45,1.06s-.15.75-.45,1.06-.65.45-1.06.45-.76-.15-1.06-.45-.45-.65-.45-1.06.15-.76.45-1.06c.3-.3.65-.45,1.06-.45Zm0,12.42c.4,0,.75.15,1.06.45s.45.65.45,1.06-.15.75-.45,1.06-.65.45-1.06.45-.76-.15-1.06-.45-.45-.65-.45-1.06.15-.75.45-1.06.65-.45,1.06-.45Zm7.72-4.69c0,.4-.15.75-.45,1.06-.3.3-.65.45-1.06.45s-.75-.15-1.06-.45c-.3-.3-.45-.65-.45-1.06s.15-.76.45-1.06c.3-.3.65-.45,1.06-.45s.76.15,1.06.45c.3.3.45.65.45,1.06Z"/>
    </g>
  </g>
</svg>